<?xml version="1.0" encoding="utf-8"?>
<!-- Generator: Adobe Illustrator 26.0.1, SVG Export Plug-In . SVG Version: 6.00 Build 0)  -->
<svg version="1.1" id="Слой_1" xmlns="http://www.w3.org/2000/svg" xmlns:xlink="http://www.w3.org/1999/xlink" x="0px" y="0px"
     viewBox="0 0 172 17" style="enable-background:new 0 0 189.1 17;" xml:space="preserve">
    <style type="text/css">
        .st0 { fill:#FFFFFF; }
        .text { fill: #FFFFFF; font-family: 'Arial'; font-size: 14px; }
    </style>
    <g id="Слой_2_00000048502098020903265590000015616171343939131554_">
        <g id="Слой_1-2">
            <path class="st0" d="M69.9,14.4V2.8H79v11.6h-1.2V3.9h-6.7v10.5H69.9z"/>
            <path class="st0" d="M85.6,14.4V2.8h4.9c2.3,0,3.7,1.3,3.7,3.2s-1.4,3.3-3.7,3.3h-3.7v5.1H85.6z M86.9,8.2h3.6
                c1.7,0,2.6-0.8,2.6-2.1s-1-2.2-2.6-2.2h-3.6V8.2z"/>
            <path class="st0" d="M105.4,2.6c1.6,0,3.1,0.6,4.2,1.7c1.1,1.1,1.7,2.7,1.7,4.3c0,1.6-0.6,3.2-1.7,4.3c-2.3,2.3-6,2.3-8.4,0
                c-1.1-1.2-1.7-2.7-1.7-4.3c-0.1-1.6,0.5-3.1,1.7-4.3C102.3,3.2,103.8,2.6,105.4,2.6z M105.4,13.5c1.2,0,2.4-0.5,3.3-1.4
                c0.9-0.9,1.4-2.2,1.3-3.5c0-1.3-0.4-2.5-1.3-3.5c-1.7-1.8-4.6-1.9-6.4-0.1c0,0-0.1,0.1-0.1,0.1c-0.9,0.9-1.4,2.2-1.3,3.5
                c0,1.3,0.4,2.5,1.3,3.5C103,13,104.1,13.5,105.4,13.5z"/>
            <path class="st0" d="M115.3,17v-3.7h1.1c0.7-1.1,1.3-2.3,1.6-3.5c0.4-1.8,0.5-3.7,0.5-5.6V2.8h7.2v10.5h1.8V17h-1.2v-2.6h-9.8V17
                L115.3,17z M124.4,13.3V3.9h-4.7v0.8c0,4-0.6,6.8-1.9,8.6H124.4z"/>
            <path class="st0" d="M134,2.8l4.9,5.2V2.8h1.2V8l4.9-5.2h1.6l-5.2,5.5l5.9,6.1h-1.6l-5.5-5.7v5.7h-1.2V8.7l-5.4,5.7h-1.6l5.9-6.1
                l-5.2-5.5H134z"/>
            <path class="st0" d="M152.7,14.4V2.8h8v1.1h-6.8v3.7h5.5v1.2h-5.5v4.6h7v1.1L152.7,14.4z"/>
            <path class="st0" d="M167.9,2.8v5.1l5.4-5.1h1.6l-5.7,5.3l6.6,6.3h-1.7l-6.2-5.9v5.9h-1.2V2.8H167.9z"/>
            <path class="st0" d="M183.8,14.4V3.9h-4V2.8h9.3v1.1H185v10.5H183.8z"/>
        </g>
        <text x="10" y="15" class="text">VOID</text>
    </g>
</svg>