<svg width="122.1" height="17" xmlns="http://www.w3.org/2000/svg">
 <style type="text/css">.st0{fill:#FFFFFF;}</style>

 <g>
  <title>background</title>
  <rect fill="none" id="canvas_background" height="19" width="124.1" y="-1" x="-1"/>
 </g>
 <g>
  <title>Layer 1</title>
  <g id="Слой_2_00000048502098020903265590000015616171343939131554_">
   <g id="Слой_1-2">
    <path id="svg_5" d="m1.61428,14.11429l0,-11.6l9.1,0l0,11.6l-1.2,0l0,-10.5l-6.7,0l0,10.5l-1.2,0z" class="st0"/>
    <path id="svg_6" d="m17.31428,14.11429l0,-11.6l4.9,0c2.3,0 3.7,1.3 3.7,3.2s-1.4,3.3 -3.7,3.3l-3.7,0l0,5.1l-1.2,0zm1.3,-6.2l3.6,0c1.7,0 2.6,-0.8 2.6,-2.1s-1,-2.2 -2.6,-2.2l-3.6,0l0,4.3z" class="st0"/>
    <path id="svg_7" d="m37.11428,2.31429c1.6,0 3.1,0.6 4.2,1.7c1.1,1.1 1.7,2.7 1.7,4.3c0,1.6 -0.6,3.2 -1.7,4.3c-2.3,2.3 -6,2.3 -8.4,0c-1.1,-1.2 -1.7,-2.7 -1.7,-4.3c-0.1,-1.6 0.5,-3.1 1.7,-4.3c1.1,-1.1 2.6,-1.7 4.2,-1.7zm0,10.9c1.2,0 2.4,-0.5 3.3,-1.4c0.9,-0.9 1.4,-2.2 1.3,-3.5c0,-1.3 -0.4,-2.5 -1.3,-3.5c-1.7,-1.8 -4.6,-1.9 -6.4,-0.1c0,0 -0.1,0.1 -0.1,0.1c-0.9,0.9 -1.4,2.2 -1.3,3.5c0,1.3 0.4,2.5 1.3,3.5c0.8,0.9 1.9,1.4 3.2,1.4z" class="st0"/>
    <path id="svg_8" d="m47.01428,16.71429l0,-3.7l1.1,0c0.7,-1.1 1.3,-2.3 1.6,-3.5c0.4,-1.8 0.5,-3.7 0.5,-5.6l0,-1.4l7.2,0l0,10.5l1.8,0l0,3.7l-1.2,0l0,-2.6l-9.8,0l0,2.6l-1.2,0zm9.1,-3.7l0,-9.4l-4.7,0l0,0.8c0,4 -0.6,6.8 -1.9,8.6l6.6,0z" class="st0"/>
    <path id="svg_9" d="m65.71428,2.51429l4.9,5.2l0,-5.2l1.2,0l0,5.2l4.9,-5.2l1.6,0l-5.2,5.5l5.9,6.1l-1.6,0l-5.5,-5.7l0,5.7l-1.2,0l0,-5.7l-5.4,5.7l-1.6,0l5.9,-6.1l-5.2,-5.5l1.3,0z" class="st0"/>
    <path id="svg_10" d="m84.41428,14.11429l0,-11.6l8,0l0,1.1l-6.8,0l0,3.7l5.5,0l0,1.2l-5.5,0l0,4.6l7,0l0,1.1l-8.2,-0.1z" class="st0"/>
    <path id="svg_11" d="m99.61428,2.51429l0,5.1l5.4,-5.1l1.6,0l-5.7,5.3l6.6,6.3l-1.7,0l-6.2,-5.9l0,5.9l-1.2,0l0,-11.6l1.2,0z" class="st0"/>
    <path id="svg_12" d="m115.51428,14.11429l0,-10.5l-4,0l0,-1.1l9.3,0l0,1.1l-4.1,0l0,10.5l-1.2,0z" class="st0"/>
   </g>
  </g>
 </g>
</svg>